<svg version="1" xmlns="http://www.w3.org/2000/svg" width="813.333" height="813.333" viewBox="0 0 610.000000 610.000000"><path d="M292.7 1.5c-6 1.6-19.8 8.6-19.1 9.7.3.4 0 .8-.5.8-2.7 0-11.8 11.3-15.4 19.1-4.5 9.9-5.6 25.9-2.4 36.1 1.6 5 8.1 17.3 9.7 18.3 1.5.9 1.2 2.5-.5 2.5-.8 0-1.5.4-1.5.9s-1 1.3-2.2 1.7c-1.3.3-3.6 1.6-5.3 2.8-5 3.5-13.4 8.4-15.8 9.2-1.2.4-25.8.8-54.7.9-49.8.2-54.3.4-67 3-.8.2-1.5.4-1.5.5 0 .1-1 .3-2.1.5-1.2.3-3.2.9-4.5 1.4-1.3.5-2.7.9-3.1 1-4.5 1-21.8 10.5-22.6 12.3-.2.5-.8.8-1.4.8-2.5 0-18.3 14.8-21.6 20.2-.9 1.6-1.9 2.8-2.3 2.8-.8 0-6.2 9.2-9.7 16.5-3.3 6.9-6.5 16.8-7.9 24.5-.2 1.4-.6 19.6-.7 40.5l-.3 38-14.9.5c-8.2.3-15.8 1-16.9 1.5-2.7 1.2-5.8 5.2-7 8.9-.7 2-1 29.2-.9 75.8.1 67.8.2 73 1.9 76.8 1 2.2 2.6 4.2 3.6 4.5 1.1.4 1.9 1 1.9 1.4 0 1.1 1 1.2 17.4 1.5l14.9.4.3 43.3c.1 23.9.5 44.3.7 45.4.2 1.1.7 3.8 1.1 6 2.8 14.9 13.3 34.2 25.4 46.4 6.4 6.5 20.2 17.8 20.2 16.6 0-.4.7.1 1.6.9.8.9 2 1.4 2.5 1.1.5-.4.9-.3.9.2 0 .4 2.6 2 5.8 3.5 8.4 3.9 14.1 5.7 27.7 8.6 1.7.4 82.2.7 179 .7 171.5 0 176.2 0 184-2 4.4-1 8.5-1.9 9-2 .6 0 1.3-.4 1.6-.8.3-.4 1.6-.9 2.7-1 1.2-.1 2.2-.4 2.2-.8 0-.3 1.9-1.2 4.3-1.9 2.3-.7 4.4-1.5 4.7-1.9.3-.3 2.5-1.7 5-3 12.6-6.9 26.7-20.1 35.1-33 3-4.6 5.2-8.4 5.1-8.5-.2 0 .9-2.5 2.3-5.5 1.5-3 3.4-7.7 4.2-10.5 3.6-13.2 4-19 3.9-60.5-.1-26.8.2-41.1.9-41.2.6 0 7.3-.1 15-.3 13.5-.2 20.3-1.6 18.9-3.7-.3-.5-.1-.9.5-.9s1.8-1.5 2.7-3.3c1.6-2.9 1.7-9.8 1.7-77.8v-74.7l-2.2-3.5c-3.3-5.5-7.7-6.7-23.6-6.7-12.2 0-13.5-.2-13.6-1.8 0-.9-.2-17.9-.3-37.7-.2-19.8-.6-37.1-.9-38.5-2.7-13.3-6.6-24.9-9.6-28.4-.9-1-1.5-2-1.3-2.2.3-.5-2.8-6.7-3.8-7.4-.3-.3-2-2.5-3.7-5-4.3-6.3-12.8-14.7-20.9-20.8-6.3-4.8-23.8-14.2-26.2-14.2-.6 0-2.3-.5-3.9-1.2-3.6-1.5-8.5-2.6-18.8-4.4-2.2-.4-27.9-.8-57.1-.9l-53.1-.1-7.9-5c-4.4-2.7-9.1-5.5-10.6-6.3-1.6-.8-2.8-1.8-2.8-2.3 0-.5-.4-.7-.9-.3-.5.3-1.2.1-1.6-.4-.3-.6 1.1-3.2 3.1-5.8 7.5-9.8 10.5-19.8 9.9-33.3-.4-10.1-2.2-16.3-7-24.7-4.1-6.9-13.4-15.4-21.1-19.3-3.7-1.9-6.8-3.4-6.8-3.3-.1.2-2.2-.4-4.7-1.1-5.7-1.7-20.8-1.8-27.2-.1z"/></svg>